<svg width="18" height="17" viewBox="0 0 18 17" fill="none" xmlns="http://www.w3.org/2000/svg">
<path d="M9.06265 0C8.28365 0.453252 7.51275 0.969416 6.77657 1.53664L10.3435 4.82352C10.5422 5.00391 10.5131 5.37261 10.2884 5.51949C8.33805 6.80187 6.97127 8.27423 6.21177 10.0536C5.56382 11.5718 5.35722 13.3265 5.6403 15.4075L6.71456 16.1586C5.8836 10.9081 9.26694 7.92433 13.2561 5.99486L9.06265 0ZM4.7384 0.268753C0.596686 3.39433 -0.676758 7.23428 0.324446 13.0578L5.39248 16.5996C4.29993 11.3214 6.04441 7.7795 10.0475 5.14719L4.7384 0.268753ZM15.5009 2.48065C14.6248 2.53671 13.3328 2.80973 11.8858 3.2662L13.6209 5.74C13.7647 5.94903 13.6773 6.27781 13.4488 6.38764C11.4904 7.33483 9.71056 8.53401 8.53244 10.0949C7.53709 11.4134 6.95571 12.9843 7.03816 14.9597C8.23598 12.6669 12.545 9.02193 17.0366 9.72984L15.5009 2.48065ZM4.87608 3.52109L5.64729 3.969L5.40626 4.3825C5.75165 4.66817 5.99571 5.05515 6.09489 5.47809C6.22044 6.0136 6.0271 6.67529 5.44768 6.98715C5.24307 7.11437 4.93865 7.03332 4.82426 6.82109C4.70984 6.60901 4.80918 6.30996 5.02765 6.20847C5.27127 6.07729 5.28909 5.94093 5.22739 5.67795C5.16569 5.41484 4.93853 5.10083 4.66961 4.94755C4.33245 4.75543 4.00824 4.66995 3.77453 4.69265C3.36531 4.85583 3.12899 5.07156 3.32007 5.4162C3.8009 5.98111 4.37849 6.37586 4.80737 6.9597C5.08222 7.36131 5.17927 7.84764 4.95195 8.25518C4.67162 8.74104 4.19763 9.03492 3.71256 9.082C3.39718 9.11262 3.08118 9.05701 2.77602 8.94412L2.52814 9.37132L1.76376 8.92341L1.99793 8.5099C1.65254 8.22423 1.40848 7.83725 1.30929 7.41431C1.18375 6.8788 1.37709 6.21727 1.95651 5.90525C2.20317 5.78336 2.5004 5.87904 2.59732 6.15648C2.65933 6.35408 2.56076 6.58949 2.37641 6.68392C2.13279 6.81509 2.11497 6.9513 2.17667 7.21455C2.23837 7.47767 2.46553 7.79167 2.73445 7.94496C3.07161 8.13708 3.39582 8.2227 3.62953 8.19985C4.04303 8.0641 4.29683 7.87899 4.08399 7.47631C3.5986 6.91318 3.03259 6.51832 2.60356 5.93281C2.47999 5.76202 2.36984 5.57477 2.3281 5.34714C2.24522 4.55109 3.02449 3.8882 3.69152 3.8105C4.0069 3.77988 4.3229 3.83549 4.62806 3.94839L4.87608 3.52109Z" fill="black"/>
</svg>
