<svg width="28" height="28" viewBox="0 0 28 28" fill="none" xmlns="http://www.w3.org/2000/svg">
<path d="M14.8947 0C13.6144 0.76454 12.3474 1.6352 11.1375 2.59198L16.9998 8.13626C17.3263 8.44053 17.2785 9.06244 16.9092 9.31021C13.7038 11.4733 11.4575 13.9569 10.2092 16.9582C9.14427 19.5192 8.80472 22.4789 9.26998 25.9892L11.0355 27.2561C9.66984 18.3996 15.2305 13.3667 21.7868 10.112L14.8947 0ZM7.78768 0.453329C0.980668 5.7255 -1.11227 12.2027 0.533235 22.0257L8.86268 28C7.06704 19.0967 9.93415 13.1224 16.5133 8.68222L7.78768 0.453329ZM25.476 4.18432C24.0363 4.27889 21.9129 4.73942 19.5345 5.50939L22.3863 9.68215C22.6227 10.0347 22.479 10.5893 22.1034 10.7746C18.8847 12.3723 15.9596 14.3951 14.0233 17.0279C12.3874 19.252 11.4319 21.9018 11.5674 25.2339C13.536 21.3664 20.618 15.2181 28 16.4122L25.476 4.18432ZM8.01396 5.93932L9.28146 6.69485L8.88532 7.39235C9.45298 7.87421 9.8541 8.52696 10.0171 9.24038C10.2234 10.1437 9.90568 11.2598 8.9534 11.7858C8.61711 12.0004 8.1168 11.8637 7.92879 11.5057C7.74074 11.148 7.904 10.6435 8.26307 10.4724C8.66346 10.2511 8.69275 10.0211 8.59134 9.5775C8.48993 9.13367 8.11659 8.60401 7.67462 8.34546C7.12049 8.02139 6.58764 7.87722 6.20354 7.91551C5.53098 8.19074 5.14258 8.55464 5.45662 9.13597C6.24687 10.0889 7.19616 10.7547 7.90103 11.7395C8.35275 12.417 8.51225 13.2373 8.13865 13.9247C7.67792 14.7443 6.89892 15.24 6.10168 15.3194C5.58335 15.371 5.06399 15.2773 4.56246 15.0868L4.15506 15.8074L2.89878 15.0519L3.28364 14.3544C2.71599 13.8725 2.31487 13.2198 2.15185 12.5064C1.94552 11.6031 2.26328 10.4872 3.21557 9.96089C3.62096 9.7553 4.10947 9.91669 4.26877 10.3847C4.37068 10.718 4.20867 11.1151 3.90568 11.2743C3.5053 11.4956 3.476 11.7254 3.57741 12.1694C3.67882 12.6132 4.05217 13.1429 4.49414 13.4014C5.04827 13.7255 5.58112 13.8699 5.96522 13.8314C6.64483 13.6024 7.06194 13.2902 6.71214 12.6109C5.91439 11.6611 4.98413 10.995 4.27901 10.0074C4.07593 9.71929 3.8949 9.40345 3.82629 9.01948C3.69007 7.67672 4.97083 6.55856 6.06711 6.42751C6.58543 6.37585 7.10479 6.46965 7.60633 6.66008L8.01396 5.93932Z" fill="#17BE09"/>
</svg>
