<svg width="19" height="19" viewBox="0 0 19 19" fill="none" xmlns="http://www.w3.org/2000/svg">
<path d="M0.130493 3.1631C0.130493 1.63231 1.37144 0.391357 2.90224 0.391357H5.21197C5.72225 0.391357 6.13583 0.804941 6.13583 1.31522C6.13583 1.8255 5.72225 2.23908 5.21197 2.23908H2.90224C2.39196 2.23908 1.97822 2.65282 1.97822 3.1631V5.47283C1.97822 5.98311 1.56463 6.3967 1.05435 6.3967C0.544077 6.3967 0.130493 5.98311 0.130493 5.47283V3.1631Z" fill="black"/>
<path d="M12.6033 1.31522C12.6033 0.804941 13.0169 0.391357 13.5272 0.391357H15.8369C17.3679 0.391357 18.6087 1.63231 18.6087 3.1631V5.47283C18.6087 5.98311 18.1951 6.3967 17.6848 6.3967C17.1745 6.3967 16.7609 5.98311 16.7609 5.47283V3.1631C16.7609 2.65282 16.3472 2.23908 15.8369 2.23908H13.5272C13.0169 2.23908 12.6033 1.8255 12.6033 1.31522Z" fill="black"/>
<path d="M1.05429 12.8643C1.56457 12.8643 1.97816 13.2778 1.97816 13.7881V16.0979C1.97816 16.6081 2.3919 17.0219 2.90218 17.0219H5.21191C5.72219 17.0219 6.13577 17.4355 6.13577 17.9457C6.13577 18.456 5.72219 18.8696 5.21191 18.8696H2.90218C1.37138 18.8696 0.130432 17.6288 0.130432 16.0979V13.7881C0.130432 13.2778 0.544016 12.8643 1.05429 12.8643Z" fill="black"/>
<path d="M17.6848 12.8643C18.1951 12.8643 18.6087 13.2778 18.6087 13.7881V16.0979C18.6087 17.6288 17.3679 18.8696 15.8369 18.8696H13.5272C13.0169 18.8696 12.6033 18.456 12.6033 17.9457C12.6033 17.4355 13.0169 17.0219 13.5272 17.0219H15.8369C16.3472 17.0219 16.7609 16.6081 16.7609 16.0979V13.7881C16.7609 13.2778 17.1745 12.8643 17.6848 12.8643Z" fill="black"/>
<path d="M7.52155 12.4021C7.52155 12.9124 7.10797 13.326 6.59769 13.326C6.08741 13.326 5.67383 12.9124 5.67383 12.4021C5.67383 11.8919 6.08741 11.4783 6.59769 11.4783C7.10797 11.4783 7.52155 11.8919 7.52155 12.4021Z" fill="black"/>
<path d="M13.0651 6.85868C13.0651 7.36895 12.6515 7.78254 12.1412 7.78254C11.6309 7.78254 11.2173 7.36895 11.2173 6.85868C11.2173 6.3484 11.6309 5.93481 12.1412 5.93481C12.6515 5.93481 13.0651 6.3484 13.0651 6.85868Z" fill="black"/>
<path d="M6.59781 7.78242C7.10809 7.78242 7.52167 7.36883 7.52167 6.85855C7.52167 6.34828 7.10809 5.93469 6.59781 5.93469C6.08753 5.93469 5.67395 6.34828 5.67395 6.85855C5.67395 7.36883 6.08753 7.78242 6.59781 7.78242Z" fill="black"/>
<path d="M12.1413 13.326C12.6515 13.326 13.0651 12.9124 13.0651 12.4021C13.0651 11.8919 12.6515 11.4783 12.1413 11.4783C11.631 11.4783 11.2174 11.8919 11.2174 12.4021C11.2174 12.9124 11.631 13.326 12.1413 13.326Z" fill="black"/>
<path fill-rule="evenodd" clip-rule="evenodd" d="M2.90222 4.08695C2.90222 3.57667 3.31581 3.16309 3.82608 3.16309H14.9131C15.4233 3.16309 15.8369 3.57667 15.8369 4.08695V15.1739C15.8369 15.6842 15.4233 16.0978 14.9131 16.0978H3.82608C3.31581 16.0978 2.90222 15.6842 2.90222 15.1739V4.08695ZM4.74994 14.2501H8.44571V10.5544H4.74994V14.2501ZM10.2934 5.01073V8.70649H13.9892V5.01073H10.2934ZM4.74994 5.01073H8.44571V8.70649H4.74994V5.01073ZM10.2934 10.5542V14.25H13.9892V10.5542H10.2934Z" fill="black"/>
</svg>
